<svg version="1.1" id="Layer_1" xmlns="http://www.w3.org/2000/svg" xmlns:xlink="http://www.w3.org/1999/xlink" x="0px" y="0px"
	 width="100%" viewBox="0 0 1080 1080" enable-background="new 0 0 1080 1080" xml:space="preserve">
<path fill="#000000" opacity="1.000000" stroke="none" 
	d="
M679.000000,1081.000000 
	C452.692719,1081.000000 226.885452,1081.000000 1.039090,1081.000000 
	C1.039090,721.067627 1.039090,361.135193 1.039090,1.101403 
	C360.890839,1.101403 720.781738,1.101403 1080.836304,1.101403 
	C1080.836304,360.999939 1080.836304,720.999939 1080.836304,1081.000000 
	C947.134766,1081.000000 813.317383,1081.000000 679.000000,1081.000000 
M740.989197,594.000000 
	C743.126099,592.700012 745.912842,591.880249 747.288574,590.017944 
	C753.615723,581.453308 759.278870,572.392578 765.714478,563.915466 
	C770.319580,557.849548 769.828735,552.167419 767.059204,545.649048 
	C763.367676,536.960815 760.316162,528.000854 756.984802,519.159485 
	C750.208801,501.176544 743.424866,483.196533 736.652893,465.212067 
	C731.971863,452.780609 727.305298,440.343781 722.523193,427.619049 
	C724.979675,426.646027 727.019775,425.253510 729.090759,425.205933 
	C730.695007,425.169067 733.114075,426.412354 733.824158,427.783875 
	C736.394592,432.748749 738.287170,438.058472 740.636536,443.145233 
	C745.617798,453.930786 750.823425,464.613220 755.758972,475.419312 
	C763.753906,492.923889 771.591553,510.500336 779.548767,528.022339 
	C780.092346,529.219299 781.078735,530.215271 782.080139,531.613281 
	C827.522705,428.097931 801.399231,286.913239 685.116089,210.788223 
	C626.432312,172.370728 561.659973,160.619614 493.136810,173.268723 
	C428.069550,185.279861 375.039001,218.565491 334.619293,271.030060 
	C303.533783,311.378876 285.679657,357.365143 282.228790,408.145203 
	C278.818542,458.327881 287.456757,506.447418 312.590698,551.556396 
	C315.472839,545.195374 318.003357,539.496948 320.627197,533.841858 
	C327.314911,519.427979 334.153015,505.082855 340.731140,490.619354 
	C350.291534,469.598724 359.627075,448.475586 369.260101,427.488708 
	C369.831543,426.243744 372.252777,425.068878 373.704071,425.188293 
	C375.914551,425.370178 378.029572,426.712585 380.316742,427.614044 
	C379.573090,429.781006 379.041046,431.461182 378.424103,433.109589 
	C369.948059,455.755859 361.458954,478.397247 352.975739,501.040894 
	C344.490814,523.689209 336.153870,546.395203 327.368744,568.926453 
	C326.057861,572.288391 325.934540,574.582275 328.021301,577.282837 
	C331.394470,581.648376 334.631226,586.119263 338.004242,590.484924 
	C339.887726,592.922607 342.128693,594.108032 345.567596,594.120850 
	C361.320099,594.179321 377.083832,594.386353 392.817535,595.107361 
	C401.920074,595.524475 411.105865,596.360046 420.022522,598.156921 
	C442.012848,602.588318 461.126770,613.520569 478.943695,626.611389 
	C492.302246,636.426453 505.159363,646.950623 517.922241,657.541748 
	C529.538025,667.181030 540.725952,677.335876 552.079041,687.242981 
	C553.040894,686.062866 554.194946,684.228149 555.738647,682.821045 
	C565.707153,673.734985 575.290588,664.140686 585.893127,655.855469 
	C603.100098,642.409363 620.821655,629.599182 638.643066,616.967957 
	C658.101135,603.176697 680.493958,597.319519 703.842773,595.138550 
	C715.854004,594.016663 727.999695,594.333435 740.989197,594.000000 
M733.000000,777.497803 
	C733.000000,772.731934 733.000000,767.966064 733.000000,763.000122 
	C724.283203,763.000122 716.139404,763.096436 707.999817,762.950684 
	C704.929504,762.895691 703.963501,764.046997 703.946533,767.050293 
	C703.876343,779.488647 704.899292,792.024780 701.942444,804.273987 
	C700.104065,811.889709 697.750366,819.383850 695.490051,826.890991 
	C695.237671,827.729248 694.082397,828.295593 693.345886,828.988098 
	C692.754395,828.343018 692.059875,827.765381 691.586853,827.042725 
	C684.627747,816.411743 682.109680,804.545898 682.012329,792.042908 
	C681.947449,783.713074 682.135986,775.377808 681.865479,767.056213 
	C681.820618,765.675110 680.043030,763.219116 678.995300,763.180420 
	C670.410278,762.863464 661.808411,763.001648 652.000000,763.001648 
	C652.000000,774.957153 652.394714,786.368103 651.881775,797.738037 
	C651.428040,807.794739 648.656311,817.417725 643.323730,826.115051 
	C642.635010,827.238403 641.425171,828.042297 640.456787,828.994202 
	C639.579163,827.796387 638.426086,826.714111 637.867493,825.382507 
	C633.503784,814.980042 631.352234,804.065552 631.044800,792.829590 
	C630.817078,784.505432 631.177551,776.162964 630.849182,767.845520 
	C630.783936,766.191528 628.853088,763.281250 627.660767,763.217224 
	C619.852722,762.797729 612.007812,762.890686 604.184448,763.128723 
	C603.096802,763.161804 601.110901,764.948669 601.144836,765.864319 
	C601.644775,779.357605 601.026062,793.099548 603.474548,806.261169 
	C606.556946,822.830139 613.009583,838.506531 623.483704,852.246704 
	C625.569580,854.983032 627.300903,856.147644 630.576233,856.057129 
	C637.401917,855.868530 644.239502,855.881836 651.066040,856.054871 
	C654.036316,856.130066 655.748840,855.207153 657.299133,852.507202 
	C660.065308,847.689758 663.468628,843.238159 666.981812,838.081055 
	C669.990967,842.543823 672.532776,846.232849 674.988892,849.978149 
	C677.563110,853.903564 680.289246,856.773621 685.849487,856.154358 
	C691.938416,855.476135 698.173584,856.219543 704.318726,855.874878 
	C706.330933,855.762024 708.953979,854.714111 710.120361,853.191772 
	C720.762573,839.300842 726.951172,823.218811 730.748291,806.416199 
	C732.785889,797.399292 732.330444,787.819092 733.000000,777.497803 
M584.970642,719.939392 
	C583.776917,719.293091 582.596741,718.118530 581.387329,718.087708 
	C574.395386,717.909302 567.396667,717.989929 560.400208,718.005920 
	C557.253296,718.013123 555.874756,719.318420 555.925903,722.766479 
	C556.113098,735.390503 556.000000,748.018982 556.000000,761.185852 
	C553.688599,760.910400 551.801941,760.530029 549.907532,760.486328 
	C540.974426,760.280518 531.942261,759.304077 523.135437,760.293518 
	C516.093689,761.084595 508.919373,763.635925 504.061859,769.648438 
	C495.741882,779.946594 493.621948,792.375427 493.166473,805.009277 
	C492.910248,812.116333 493.890381,819.361267 495.110107,826.406189 
	C496.893280,836.705505 501.127838,845.890808 510.186218,852.001587 
	C523.092224,860.707825 536.971069,859.315674 550.939087,855.474182 
	C553.256531,854.836853 555.251892,853.028687 556.691162,852.178162 
	C558.561157,853.762024 559.839661,855.785034 561.194580,855.837463 
	C569.096008,856.143555 577.015320,855.987488 584.998047,855.987488 
	C584.998047,810.491455 584.998047,765.685486 584.970642,719.939392 
M291.727600,852.974792 
	C306.370453,861.385742 322.228394,857.345947 338.070007,857.055969 
	C338.070007,869.193848 338.070007,880.934143 338.070007,893.000000 
	C346.077301,893.000000 353.700043,893.000427 361.322815,892.999756 
	C367.992371,892.999207 367.998566,892.998718 367.998962,886.019226 
	C368.001129,847.888306 368.020874,809.757263 367.957520,771.626465 
	C367.952820,768.794189 367.343445,765.962952 366.999969,763.000000 
	C363.425659,763.000000 360.360687,762.559326 357.475006,763.091248 
	C351.364105,764.217712 344.391022,759.789856 338.994720,765.883057 
	C338.779144,766.126526 337.277008,765.378601 336.467773,764.925659 
	C326.455750,759.321716 315.907562,757.492004 304.632629,760.109497 
	C289.934265,763.521729 281.000458,772.439453 277.923553,787.306091 
	C275.719879,797.953552 274.828827,808.580750 275.905518,819.477173 
	C277.179108,832.366516 280.400879,844.117798 291.727600,852.974792 
M106.000000,799.723145 
	C106.666832,810.530823 106.252029,821.544434 108.261383,832.096436 
	C111.071144,846.851807 123.150352,858.268433 140.042618,858.023743 
	C149.227234,857.890625 158.415375,858.000000 168.000076,858.000000 
	C168.000076,867.825684 168.096298,878.279785 167.943283,888.730164 
	C167.895416,891.999084 169.012115,893.152466 172.277588,893.055115 
	C178.599319,892.866516 184.930679,893.000427 191.258041,892.999878 
	C197.990921,892.999329 197.998245,892.998901 197.998749,886.084045 
	C198.001404,850.117920 198.000046,814.151855 197.999954,778.185730 
	C197.999939,774.522522 198.065247,770.857727 197.977158,767.196594 
	C197.909836,764.398071 196.853256,762.789368 193.530457,762.929016 
	C187.546677,763.180481 181.544250,763.046082 175.550613,762.980591 
	C172.528152,762.947632 169.355530,762.463196 169.708298,767.242065 
	C158.969879,759.752319 147.820312,757.329041 135.605423,759.999207 
	C125.571404,762.192627 117.591599,766.820129 112.072746,776.134705 
	C107.807587,783.333313 107.482376,791.096375 106.000000,799.723145 
M387.033508,719.907104 
	C387.022339,747.565430 387.008942,775.223755 387.000885,802.882080 
	C386.996185,819.043945 386.996429,835.205872 387.004364,851.367737 
	C387.005432,853.503601 386.546112,855.988647 389.917816,855.993774 
	C398.522034,856.006897 407.126221,855.998169 416.000000,855.998169 
	C416.000000,838.188904 416.000000,820.890869 416.000000,803.592773 
	C416.000000,791.580261 416.896912,790.189392 427.994415,785.506836 
	C430.199310,784.576477 432.463562,783.726074 434.774231,783.120178 
	C439.244659,781.948120 445.141907,784.451660 445.894073,787.998596 
	C446.566223,791.168152 446.935730,794.460022 446.953278,797.700562 
	C447.050690,815.694763 446.994781,833.689636 447.010132,851.684326 
	C447.011322,853.104309 447.155762,854.524109 447.217255,855.644775 
	C456.783875,855.644775 465.858307,855.644775 474.999969,855.644775 
	C474.999969,830.967041 475.006866,806.644409 474.977966,782.321777 
	C474.976654,781.203735 474.712128,780.073486 474.472412,778.970154 
	C470.586975,761.088501 448.073944,756.961609 434.886261,759.743652 
	C428.560394,761.078064 422.533508,763.829712 416.000000,766.066650 
	C416.000000,751.484009 415.904755,737.175049 416.076172,722.869324 
	C416.112762,719.815857 415.192719,717.985413 412.202271,718.058838 
	C403.956177,718.261292 395.716583,718.726746 387.033508,719.907104 
M882.468811,804.980408 
	C880.344116,803.333862 878.219421,801.687317 875.729980,799.758179 
	C887.638062,787.873291 899.566040,775.968506 911.494080,764.063721 
	C900.850708,763.000000 890.897278,762.863403 880.953552,763.114075 
	C878.937866,763.164917 876.523621,764.209656 875.034607,765.593872 
	C866.056641,773.939880 857.300781,782.524536 848.443420,791.000977 
	C847.939453,791.483276 847.195557,791.714905 846.000000,792.373474 
	C846.000000,790.101257 846.000000,788.486938 846.000000,786.872620 
	C846.000000,765.546143 845.932129,744.219177 846.066406,722.893555 
	C846.088928,719.313354 845.227844,717.738586 841.340332,717.926819 
	C835.522461,718.208557 829.675354,718.156616 823.851318,717.948120 
	C819.548218,717.794067 817.882629,719.158508 817.901001,723.817261 
	C818.069275,766.469604 818.000000,809.122864 818.000000,851.775818 
	C818.000000,853.061157 818.000000,854.346497 818.000000,855.789429 
	C827.488831,855.789429 836.558533,855.789429 846.000000,855.789429 
	C846.000000,847.628845 845.947449,839.672241 846.053833,831.717834 
	C846.070740,830.455139 846.468079,828.903748 847.270203,828.002869 
	C849.349182,825.667969 851.788391,823.658203 854.018066,821.452087 
	C858.708740,816.811096 860.440918,816.755859 864.007507,822.428284 
	C870.251282,832.358459 876.056152,842.563904 882.210266,852.552063 
	C883.097046,853.991394 884.868958,855.794861 886.288940,855.846741 
	C894.756409,856.155518 903.240784,855.999512 912.491150,855.999512 
	C911.771484,853.710388 911.488098,851.789856 910.612000,850.194885 
	C906.360535,842.455566 902.176147,834.663757 897.532349,827.160156 
	C892.956726,819.766602 887.858765,812.696411 882.468811,804.980408 
M222.017853,844.022766 
	C224.564545,847.421082 226.442917,851.833923 229.780106,854.032104 
	C240.923920,861.372498 252.795502,858.444031 264.390198,854.745300 
	C265.533325,854.380615 266.932739,852.180420 266.819092,850.962219 
	C266.263824,845.009155 265.235504,839.100281 264.392151,833.297546 
	C259.727020,833.568665 254.928268,833.847595 250.000000,834.134033 
	C250.000000,811.133850 250.000000,788.979858 250.000000,766.825867 
	C249.999985,752.663818 249.985870,738.501770 250.008499,724.339722 
	C250.015366,720.037598 248.565826,717.619629 243.635147,717.920227 
	C237.991318,718.264404 232.307877,718.102417 226.646393,717.965027 
	C222.689209,717.869019 220.868561,718.923767 220.892578,723.521423 
	C221.084808,760.341797 220.976318,797.163574 221.043350,833.984802 
	C221.048935,837.049194 221.667130,840.112549 222.017853,844.022766 
M967.100891,856.976685 
	C969.862549,855.707764 972.686340,854.557251 975.373657,853.146545 
	C982.016052,849.659363 981.985718,849.613525 979.221802,842.574585 
	C978.811951,841.530762 978.468079,840.460632 978.108215,839.397766 
	C975.475159,831.621826 975.476379,831.621399 967.598999,833.756653 
	C960.898010,835.572998 959.000183,834.105469 959.000122,827.105957 
	C958.999878,807.285461 958.941284,787.464600 959.057129,767.644775 
	C959.076660,764.300842 958.251709,762.856628 954.596191,762.928772 
	C944.273560,763.132446 933.942627,763.105530 923.618652,762.939819 
	C920.238281,762.885620 918.637878,763.800720 918.951599,767.433350 
	C919.194336,770.243835 919.000000,773.092163 919.000000,775.923645 
	C919.000000,784.783813 919.000122,784.779785 927.960510,785.062317 
	C928.228638,785.070740 928.487732,785.364075 929.000000,785.676392 
	C929.000000,802.001953 928.445374,818.490479 929.172546,834.922302 
	C929.771484,848.457397 934.663879,855.199585 945.640564,857.539246 
	C952.172058,858.931458 959.351990,857.281311 967.100891,856.976685 
M784.000000,778.503296 
	C784.000000,773.407532 784.000000,768.311768 784.000000,763.268433 
	C770.708252,763.268433 757.980286,763.268433 745.260132,763.268433 
	C745.260132,770.609497 745.260132,777.679382 745.260132,785.131958 
	C748.588623,785.131958 751.672119,785.131958 755.000000,785.131958 
	C755.000000,802.635193 754.907410,819.752869 755.039978,836.868774 
	C755.104004,845.133667 759.641663,854.867249 766.913940,856.195068 
	C774.060608,857.500061 781.556458,858.004333 788.776428,857.398560 
	C793.443787,857.006958 797.868774,853.930603 802.442566,852.161011 
	C806.933228,850.423645 807.664673,847.415649 805.733704,843.320557 
	C803.968872,839.577759 802.261414,835.807922 800.319641,831.596680 
	C798.222229,832.177612 796.169678,832.557678 794.262756,833.307983 
	C787.185364,836.092468 784.000122,834.158813 784.000061,826.942688 
	C783.999878,811.129089 784.000000,795.315430 784.000000,778.503296 
M949.466553,721.000000 
	C943.306152,721.000061 937.144592,721.071411 930.985962,720.966614 
	C928.374573,720.922180 926.911865,721.572449 926.962646,724.560608 
	C927.081421,731.551453 926.881653,738.549683 927.116821,745.534607 
	C927.156494,746.712402 928.699951,748.817078 929.589172,748.838928 
	C939.333557,749.078369 949.085999,748.989014 958.696899,748.989014 
	C958.696899,739.313049 958.696899,730.245667 958.696899,721.000000 
	C955.748840,721.000000 953.102417,721.000000 949.466553,721.000000 
M753.731873,748.942261 
	C763.686401,748.942261 773.640869,748.942261 783.795532,748.942261 
	C783.795532,739.544678 783.795532,730.473755 783.795532,721.201294 
	C773.538208,721.201294 763.467407,721.201294 753.056213,721.201294 
	C753.056213,730.345215 753.056213,739.298523 753.731873,748.942261 
z"/>
<path fill="#FFFFFF" opacity="1.000000" stroke="none" 
	d="
M740.536865,594.000000 
	C727.999695,594.333435 715.854004,594.016663 703.842773,595.138550 
	C680.493958,597.319519 658.101135,603.176697 638.643066,616.967957 
	C620.821655,629.599182 603.100098,642.409363 585.893127,655.855469 
	C575.290588,664.140686 565.707153,673.734985 555.738647,682.821045 
	C554.194946,684.228149 553.040894,686.062866 552.079041,687.242981 
	C540.725952,677.335876 529.538025,667.181030 517.922241,657.541748 
	C505.159363,646.950623 492.302246,636.426453 478.943695,626.611389 
	C461.126770,613.520569 442.012848,602.588318 420.022522,598.156921 
	C411.105865,596.360046 401.920074,595.524475 392.817535,595.107361 
	C377.083832,594.386353 361.320099,594.179321 345.567596,594.120850 
	C342.128693,594.108032 339.887726,592.922607 338.004242,590.484924 
	C334.631226,586.119263 331.394470,581.648376 328.021301,577.282837 
	C325.934540,574.582275 326.057861,572.288391 327.368744,568.926453 
	C336.153870,546.395203 344.490814,523.689209 352.975739,501.040894 
	C361.458954,478.397247 369.948059,455.755859 378.424103,433.109589 
	C379.041046,431.461182 379.573090,429.781006 380.316742,427.614044 
	C378.029572,426.712585 375.914551,425.370178 373.704071,425.188293 
	C372.252777,425.068878 369.831543,426.243744 369.260101,427.488708 
	C359.627075,448.475586 350.291534,469.598724 340.731140,490.619354 
	C334.153015,505.082855 327.314911,519.427979 320.627197,533.841858 
	C318.003357,539.496948 315.472839,545.195374 312.590698,551.556396 
	C287.456757,506.447418 278.818542,458.327881 282.228790,408.145203 
	C285.679657,357.365143 303.533783,311.378876 334.619293,271.030060 
	C375.039001,218.565491 428.069550,185.279861 493.136810,173.268723 
	C561.659973,160.619614 626.432312,172.370728 685.116089,210.788223 
	C801.399231,286.913239 827.522705,428.097931 782.080139,531.613281 
	C781.078735,530.215271 780.092346,529.219299 779.548767,528.022339 
	C771.591553,510.500336 763.753906,492.923889 755.758972,475.419312 
	C750.823425,464.613220 745.617798,453.930786 740.636536,443.145233 
	C738.287170,438.058472 736.394592,432.748749 733.824158,427.783875 
	C733.114075,426.412354 730.695007,425.169067 729.090759,425.205933 
	C727.019775,425.253510 724.979675,426.646027 722.523193,427.619049 
	C727.305298,440.343781 731.971863,452.780609 736.652893,465.212067 
	C743.424866,483.196533 750.208801,501.176544 756.984802,519.159485 
	C760.316162,528.000854 763.367676,536.960815 767.059204,545.649048 
	C769.828735,552.167419 770.319580,557.849548 765.714478,563.915466 
	C759.278870,572.392578 753.615723,581.453308 747.288574,590.017944 
	C745.912842,591.880249 743.126099,592.700012 740.536865,594.000000 
M547.000000,553.500000 
	C547.000000,528.341675 547.069397,503.182770 546.867981,478.026031 
	C546.851990,476.017792 545.448914,472.869476 543.870483,472.208282 
	C531.913757,467.199402 519.750061,462.685211 507.655243,458.005524 
	C485.855865,449.570892 464.060760,441.125122 442.261230,432.690796 
	C431.959961,428.705231 421.587555,424.892029 411.389648,420.658112 
	C408.519562,419.466492 407.097168,419.983154 406.102539,422.574219 
	C400.710114,436.621857 395.408264,450.704468 389.977844,464.737274 
	C380.964081,488.029663 371.893677,511.300201 362.810883,534.565796 
	C359.166534,543.900757 355.426361,553.198364 351.537659,562.997070 
	C354.977844,562.997070 357.640686,563.140625 360.283417,562.971069 
	C369.621521,562.371948 378.955933,561.093384 388.285828,561.144775 
	C399.954163,561.209045 411.733856,561.534546 423.248749,563.224304 
	C434.797424,564.918945 446.734283,566.900208 457.351105,571.443176 
	C485.120392,583.325684 508.075317,602.736145 530.982971,621.980408 
	C536.120972,626.296753 541.099854,630.802429 547.000000,635.962646 
	C547.000000,608.003784 547.000000,581.251892 547.000000,553.500000 
M551.000000,521.500000 
	C551.000000,558.934692 551.000000,596.369446 551.000000,635.256409 
	C553.394836,633.292053 554.816650,632.114929 556.249939,630.951904 
	C570.918335,619.048950 585.219727,606.650574 600.382141,595.414062 
	C611.306274,587.318481 622.994690,580.044006 635.026794,573.702087 
	C653.783447,563.815857 674.661499,562.104736 695.376404,561.167847 
	C708.080261,560.593323 720.859070,561.653198 733.602661,562.029663 
	C734.546936,562.057495 735.473877,562.680420 736.417908,562.707031 
	C739.582764,562.796570 742.751709,562.741028 746.207764,562.741028 
	C740.054504,547.294006 734.021301,532.477295 728.238770,517.563477 
	C716.088196,486.226013 704.065552,454.838959 692.002625,423.467560 
	C690.897278,420.592957 689.632385,419.431824 686.128296,420.866302 
	C671.023560,427.049866 655.771118,432.873566 640.556824,438.788116 
	C612.059753,449.866425 583.584717,461.003510 555.001892,471.856476 
	C551.856262,473.050903 550.959778,474.543701 550.972534,477.525757 
	C551.033691,491.850281 551.000000,506.175201 551.000000,521.500000 
M573.826233,351.984711 
	C570.121094,350.446533 567.295532,347.786652 567.133789,343.787292 
	C566.915100,338.380524 567.326111,332.916748 567.878784,327.519592 
	C568.376953,322.654266 567.479065,315.215881 561.275146,314.910950 
	C558.164856,314.758087 554.015503,315.807556 551.978821,317.906952 
	C547.748474,322.267456 544.366028,327.534515 541.093567,332.718384 
	C537.281982,338.756348 531.897705,341.447723 524.905090,340.019928 
	C520.015320,339.021545 514.937744,338.527313 510.297699,336.837006 
	C505.529449,335.100037 502.239502,336.504730 499.574127,340.027466 
	C496.920410,343.534821 497.474915,349.473694 500.622314,353.081726 
	C504.437012,357.454651 508.388916,361.715973 512.430908,365.880524 
	C517.523438,371.127441 518.322693,376.606934 513.804199,382.701294 
	C509.855652,388.026855 505.857819,393.321320 502.092163,398.774750 
	C500.111237,401.643494 500.295380,405.166565 502.952148,407.155975 
	C505.404297,408.992188 509.310028,411.045593 511.763580,410.306732 
	C518.459229,408.290466 524.746033,404.893890 531.157837,401.963165 
	C539.250549,398.264130 544.116882,399.583801 548.988770,407.048798 
	C551.445312,410.812927 553.634399,414.754883 556.162048,418.468323 
	C558.438965,421.813568 561.865723,424.226990 565.780701,422.786163 
	C568.488831,421.789429 570.935242,419.102173 572.600952,416.577942 
	C573.822205,414.727295 573.966248,411.908508 573.924500,409.532928 
	C573.823486,403.780426 573.255737,398.037903 573.023010,392.285370 
	C572.812683,387.086914 574.899902,383.061005 579.854736,381.048065 
	C585.179443,378.884827 590.708862,377.208496 595.967529,374.905579 
	C599.498474,373.359283 603.097229,371.551758 603.042480,366.587402 
	C602.976868,360.630829 600.556335,357.340393 594.450378,356.032318 
	C587.863159,354.621124 581.232361,353.412750 573.826233,351.984711 
M465.464874,389.025299 
	C467.805115,388.016724 470.281830,387.233887 472.442322,385.927887 
	C474.160950,384.888977 475.493225,383.210938 476.997009,381.816620 
	C475.332520,380.552216 473.733917,379.181976 471.967163,378.081757 
	C471.363617,377.705902 470.314850,378.131622 469.508911,377.980743 
	C460.679565,376.327728 459.015961,374.276306 460.361877,365.025970 
	C460.582977,363.506317 459.903839,361.855652 459.640778,360.265533 
	C457.770447,360.803040 455.708282,361.021149 454.096497,361.989105 
	C453.002319,362.646210 452.576752,364.379303 451.788544,365.589752 
	C448.343445,370.880646 444.666473,372.299255 438.463135,370.775543 
	C437.372406,370.507629 436.243286,369.957184 435.192444,370.075409 
	C433.836914,370.227936 431.952972,370.563812 431.391632,371.486755 
	C430.857880,372.364288 431.381500,374.320923 432.066040,375.409576 
	C433.354279,377.458313 434.977936,379.335205 436.669525,381.082764 
	C439.747314,384.262421 440.126984,387.507263 437.453796,391.093750 
	C435.537292,393.665009 433.685822,396.284698 431.903687,398.746918 
	C433.563782,402.493042 435.834534,402.554474 438.754578,400.731049 
	C440.521820,399.627472 442.475800,398.809875 444.383423,397.946686 
	C449.369812,395.690308 451.652771,396.961731 456.725342,404.096191 
	C457.659637,405.410248 459.575592,406.026276 461.038452,406.964508 
	C461.692291,405.465393 462.644958,404.023010 462.942566,402.456207 
	C463.749786,398.206604 464.279144,393.904205 465.464874,389.025299 
M653.007996,394.492584 
	C657.574097,388.100616 663.002563,396.031128 668.506836,393.249298 
	C667.781921,391.780426 667.335205,390.055511 666.280579,388.872559 
	C659.812134,381.617340 659.778870,381.665924 664.735168,373.632172 
	C665.311829,372.697449 665.655396,371.619049 666.744690,369.178833 
	C663.707886,369.547668 661.244263,369.201294 659.519653,370.170227 
	C652.730835,373.984375 651.140320,373.712372 646.633240,367.261078 
	C645.726196,365.962891 644.195374,365.100616 642.952148,364.037323 
	C642.301453,365.736359 641.002380,367.479523 641.114624,369.126587 
	C641.550049,375.518097 640.851440,380.898254 633.200562,382.439514 
	C632.363281,382.608185 630.991882,384.114471 631.139648,384.465515 
	C631.668457,385.722565 632.581299,386.968781 633.674377,387.781494 
	C634.334290,388.272156 635.595154,387.959442 636.586304,387.999207 
	C642.833679,388.249969 644.945862,390.429077 645.019958,396.538361 
	C645.044617,398.577026 645.302185,400.612885 645.453552,402.654816 
	C650.730957,402.190491 650.862061,398.004456 653.007996,394.492584 
M605.653320,323.997864 
	C606.299072,323.922760 607.006897,323.993988 607.581055,323.750244 
	C614.242554,320.922150 614.549316,321.012299 618.533630,326.957458 
	C618.861877,327.447174 619.497192,327.731079 621.278992,329.103973 
	C621.630310,324.857117 620.952881,321.090881 622.426331,318.593719 
	C623.902893,316.091370 627.526306,314.855713 631.199768,312.403229 
	C627.131348,311.257507 623.153809,311.289734 621.427795,309.334473 
	C619.620911,307.287598 619.976929,303.331451 619.076843,298.564026 
	C616.624023,301.752655 615.205261,305.242889 612.706848,306.397766 
	C610.028198,307.635956 606.333984,306.677124 602.284729,306.677124 
	C603.361755,308.192596 604.007324,309.460266 604.974426,310.395599 
	C608.120789,313.438660 609.130554,316.397949 605.651367,319.999237 
	C604.860291,320.818054 605.088867,322.622009 605.653320,323.997864 
z"/>
<path fill="#FFFFFF" opacity="1.000000" stroke="none" 
	d="
M733.000000,777.995422 
	C732.330444,787.819092 732.785889,797.399292 730.748291,806.416199 
	C726.951172,823.218811 720.762573,839.300842 710.120361,853.191772 
	C708.953979,854.714111 706.330933,855.762024 704.318726,855.874878 
	C698.173584,856.219543 691.938416,855.476135 685.849487,856.154358 
	C680.289246,856.773621 677.563110,853.903564 674.988892,849.978149 
	C672.532776,846.232849 669.990967,842.543823 666.981812,838.081055 
	C663.468628,843.238159 660.065308,847.689758 657.299133,852.507202 
	C655.748840,855.207153 654.036316,856.130066 651.066040,856.054871 
	C644.239502,855.881836 637.401917,855.868530 630.576233,856.057129 
	C627.300903,856.147644 625.569580,854.983032 623.483704,852.246704 
	C613.009583,838.506531 606.556946,822.830139 603.474548,806.261169 
	C601.026062,793.099548 601.644775,779.357605 601.144836,765.864319 
	C601.110901,764.948669 603.096802,763.161804 604.184448,763.128723 
	C612.007812,762.890686 619.852722,762.797729 627.660767,763.217224 
	C628.853088,763.281250 630.783936,766.191528 630.849182,767.845520 
	C631.177551,776.162964 630.817078,784.505432 631.044800,792.829590 
	C631.352234,804.065552 633.503784,814.980042 637.867493,825.382507 
	C638.426086,826.714111 639.579163,827.796387 640.456787,828.994202 
	C641.425171,828.042297 642.635010,827.238403 643.323730,826.115051 
	C648.656311,817.417725 651.428040,807.794739 651.881775,797.738037 
	C652.394714,786.368103 652.000000,774.957153 652.000000,763.001648 
	C661.808411,763.001648 670.410278,762.863464 678.995300,763.180420 
	C680.043030,763.219116 681.820618,765.675110 681.865479,767.056213 
	C682.135986,775.377808 681.947449,783.713074 682.012329,792.042908 
	C682.109680,804.545898 684.627747,816.411743 691.586853,827.042725 
	C692.059875,827.765381 692.754395,828.343018 693.345886,828.988098 
	C694.082397,828.295593 695.237671,827.729248 695.490051,826.890991 
	C697.750366,819.383850 700.104065,811.889709 701.942444,804.273987 
	C704.899292,792.024780 703.876343,779.488647 703.946533,767.050293 
	C703.963501,764.046997 704.929504,762.895691 707.999817,762.950684 
	C716.139404,763.096436 724.283203,763.000122 733.000000,763.000122 
	C733.000000,767.966064 733.000000,772.731934 733.000000,777.995422 
z"/>
<path fill="#FFFFFF" opacity="1.000000" stroke="none" 
	d="
M584.984375,720.409485 
	C584.998047,765.685486 584.998047,810.491455 584.998047,855.987488 
	C577.015320,855.987488 569.096008,856.143555 561.194580,855.837463 
	C559.839661,855.785034 558.561157,853.762024 556.691162,852.178162 
	C555.251892,853.028687 553.256531,854.836853 550.939087,855.474182 
	C536.971069,859.315674 523.092224,860.707825 510.186218,852.001587 
	C501.127838,845.890808 496.893280,836.705505 495.110107,826.406189 
	C493.890381,819.361267 492.910248,812.116333 493.166473,805.009277 
	C493.621948,792.375427 495.741882,779.946594 504.061859,769.648438 
	C508.919373,763.635925 516.093689,761.084595 523.135437,760.293518 
	C531.942261,759.304077 540.974426,760.280518 549.907532,760.486328 
	C551.801941,760.530029 553.688599,760.910400 556.000000,761.185852 
	C556.000000,748.018982 556.113098,735.390503 555.925903,722.766479 
	C555.874756,719.318420 557.253296,718.013123 560.400208,718.005920 
	C567.396667,717.989929 574.395386,717.909302 581.387329,718.087708 
	C582.596741,718.118530 583.776917,719.293091 584.984375,720.409485 
M523.950439,815.641724 
	C524.163147,827.944946 531.211121,834.869202 542.635986,833.999390 
	C548.178833,833.577393 555.914062,827.772949 555.954285,823.640198 
	C556.078552,810.860718 555.999695,798.079163 555.999695,784.853210 
	C550.588196,784.213196 545.468079,783.214783 540.327942,783.099060 
	C533.873108,782.953674 528.470703,785.872681 526.151611,791.985474 
	C523.383545,799.281555 522.043701,807.004761 523.950439,815.641724 
z"/>
<path fill="#FFFFFF" opacity="1.000000" stroke="none" 
	d="
M291.398865,852.782104 
	C280.400879,844.117798 277.179108,832.366516 275.905518,819.477173 
	C274.828827,808.580750 275.719879,797.953552 277.923553,787.306091 
	C281.000458,772.439453 289.934265,763.521729 304.632629,760.109497 
	C315.907562,757.492004 326.455750,759.321716 336.467773,764.925659 
	C337.277008,765.378601 338.779144,766.126526 338.994720,765.883057 
	C344.391022,759.789856 351.364105,764.217712 357.475006,763.091248 
	C360.360687,762.559326 363.425659,763.000000 366.999969,763.000000 
	C367.343445,765.962952 367.952820,768.794189 367.957520,771.626465 
	C368.020874,809.757263 368.001129,847.888306 367.998962,886.019226 
	C367.998566,892.998718 367.992371,892.999207 361.322815,892.999756 
	C353.700043,893.000427 346.077301,893.000000 338.070007,893.000000 
	C338.070007,880.934143 338.070007,869.193848 338.070007,857.055969 
	C322.228394,857.345947 306.370453,861.385742 291.398865,852.782104 
M325.339111,783.997681 
	C322.544952,783.997742 319.578949,783.390808 316.992035,784.122925 
	C311.429657,785.697266 308.679626,790.386353 307.066956,795.500305 
	C304.371063,804.049011 304.287323,812.700989 306.785950,821.407959 
	C309.692627,831.536804 312.650024,834.092468 322.749695,833.960815 
	C327.764832,833.895447 332.774597,833.418579 337.999725,833.115479 
	C337.999725,820.156799 338.025238,807.844727 337.953583,795.533203 
	C337.947540,794.496460 337.599426,793.097412 336.882324,792.490784 
	C333.408325,789.552063 329.753906,786.826477 325.339111,783.997681 
z"/>
<path fill="#FFFFFF" opacity="1.000000" stroke="none" 
	d="
M106.000061,799.248413 
	C107.482376,791.096375 107.807587,783.333313 112.072746,776.134705 
	C117.591599,766.820129 125.571404,762.192627 135.605423,759.999207 
	C147.820312,757.329041 158.969879,759.752319 169.708298,767.242065 
	C169.355530,762.463196 172.528152,762.947632 175.550613,762.980591 
	C181.544250,763.046082 187.546677,763.180481 193.530457,762.929016 
	C196.853256,762.789368 197.909836,764.398071 197.977158,767.196594 
	C198.065247,770.857727 197.999939,774.522522 197.999954,778.185730 
	C198.000046,814.151855 198.001404,850.117920 197.998749,886.084045 
	C197.998245,892.998901 197.990921,892.999329 191.258041,892.999878 
	C184.930679,893.000427 178.599319,892.866516 172.277588,893.055115 
	C169.012115,893.152466 167.895416,891.999084 167.943283,888.730164 
	C168.096298,878.279785 168.000076,867.825684 168.000076,858.000000 
	C158.415375,858.000000 149.227234,857.890625 140.042618,858.023743 
	C123.150352,858.268433 111.071144,846.851807 108.261383,832.096436 
	C106.252029,821.544434 106.666832,810.530823 106.000061,799.248413 
M158.355637,784.868652 
	C154.105148,783.361145 150.096970,781.803040 145.540726,784.781799 
	C141.362930,787.513245 138.421753,790.872803 137.027435,795.540039 
	C134.467026,804.110596 134.288208,812.709290 136.774109,821.389038 
	C139.715714,831.659973 142.610199,834.091797 153.158234,833.959045 
	C158.010574,833.898010 162.857407,833.397156 168.000000,833.077515 
	C168.000000,822.638000 167.521484,812.663940 168.149948,802.760132 
	C168.661530,794.698486 166.431961,788.753662 158.355637,784.868652 
z"/>
<path fill="#FFFFFF" opacity="1.000000" stroke="none" 
	d="
M387.253967,719.497681 
	C395.716583,718.726746 403.956177,718.261292 412.202271,718.058838 
	C415.192719,717.985413 416.112762,719.815857 416.076172,722.869324 
	C415.904755,737.175049 416.000000,751.484009 416.000000,766.066650 
	C422.533508,763.829712 428.560394,761.078064 434.886261,759.743652 
	C448.073944,756.961609 470.586975,761.088501 474.472412,778.970154 
	C474.712128,780.073486 474.976654,781.203735 474.977966,782.321777 
	C475.006866,806.644409 474.999969,830.967041 474.999969,855.644775 
	C465.858307,855.644775 456.783875,855.644775 447.217255,855.644775 
	C447.155762,854.524109 447.011322,853.104309 447.010132,851.684326 
	C446.994781,833.689636 447.050690,815.694763 446.953278,797.700562 
	C446.935730,794.460022 446.566223,791.168152 445.894073,787.998596 
	C445.141907,784.451660 439.244659,781.948120 434.774231,783.120178 
	C432.463562,783.726074 430.199310,784.576477 427.994415,785.506836 
	C416.896912,790.189392 416.000000,791.580261 416.000000,803.592773 
	C416.000000,820.890869 416.000000,838.188904 416.000000,855.998169 
	C407.126221,855.998169 398.522034,856.006897 389.917816,855.993774 
	C386.546112,855.988647 387.005432,853.503601 387.004364,851.367737 
	C386.996429,835.205872 386.996185,819.043945 387.000885,802.882080 
	C387.008942,775.223755 387.022339,747.565430 387.253967,719.497681 
z"/>
<path fill="#FFFFFF" opacity="1.000000" stroke="none" 
	d="
M882.729370,805.232361 
	C887.858765,812.696411 892.956726,819.766602 897.532349,827.160156 
	C902.176147,834.663757 906.360535,842.455566 910.612000,850.194885 
	C911.488098,851.789856 911.771484,853.710388 912.491150,855.999512 
	C903.240784,855.999512 894.756409,856.155518 886.288940,855.846741 
	C884.868958,855.794861 883.097046,853.991394 882.210266,852.552063 
	C876.056152,842.563904 870.251282,832.358459 864.007507,822.428284 
	C860.440918,816.755859 858.708740,816.811096 854.018066,821.452087 
	C851.788391,823.658203 849.349182,825.667969 847.270203,828.002869 
	C846.468079,828.903748 846.070740,830.455139 846.053833,831.717834 
	C845.947449,839.672241 846.000000,847.628845 846.000000,855.789429 
	C836.558533,855.789429 827.488831,855.789429 818.000000,855.789429 
	C818.000000,854.346497 818.000000,853.061157 818.000000,851.775818 
	C818.000000,809.122864 818.069275,766.469604 817.901001,723.817261 
	C817.882629,719.158508 819.548218,717.794067 823.851318,717.948120 
	C829.675354,718.156616 835.522461,718.208557 841.340332,717.926819 
	C845.227844,717.738586 846.088928,719.313354 846.066406,722.893555 
	C845.932129,744.219177 846.000000,765.546143 846.000000,786.872620 
	C846.000000,788.486938 846.000000,790.101257 846.000000,792.373474 
	C847.195557,791.714905 847.939453,791.483276 848.443420,791.000977 
	C857.300781,782.524536 866.056641,773.939880 875.034607,765.593872 
	C876.523621,764.209656 878.937866,763.164917 880.953552,763.114075 
	C890.897278,762.863403 900.850708,763.000000 911.494080,764.063721 
	C899.566040,775.968506 887.638062,787.873291 875.729980,799.758179 
	C878.219421,801.687317 880.344116,803.333862 882.729370,805.232361 
z"/>
<path fill="#FFFFFF" opacity="1.000000" stroke="none" 
	d="
M222.009277,843.599609 
	C221.667130,840.112549 221.048935,837.049194 221.043350,833.984802 
	C220.976318,797.163574 221.084808,760.341797 220.892578,723.521423 
	C220.868561,718.923767 222.689209,717.869019 226.646393,717.965027 
	C232.307877,718.102417 237.991318,718.264404 243.635147,717.920227 
	C248.565826,717.619629 250.015366,720.037598 250.008499,724.339722 
	C249.985870,738.501770 249.999985,752.663818 250.000000,766.825867 
	C250.000000,788.979858 250.000000,811.133850 250.000000,834.134033 
	C254.928268,833.847595 259.727020,833.568665 264.392151,833.297546 
	C265.235504,839.100281 266.263824,845.009155 266.819092,850.962219 
	C266.932739,852.180420 265.533325,854.380615 264.390198,854.745300 
	C252.795502,858.444031 240.923920,861.372498 229.780106,854.032104 
	C226.442917,851.833923 224.564545,847.421082 222.009277,843.599609 
z"/>
<path fill="#FFFFFF" opacity="1.000000" stroke="none" 
	d="
M966.670654,856.987793 
	C959.351990,857.281311 952.172058,858.931458 945.640564,857.539246 
	C934.663879,855.199585 929.771484,848.457397 929.172546,834.922302 
	C928.445374,818.490479 929.000000,802.001953 929.000000,785.676392 
	C928.487732,785.364075 928.228638,785.070740 927.960510,785.062317 
	C919.000122,784.779785 919.000000,784.783813 919.000000,775.923645 
	C919.000000,773.092163 919.194336,770.243835 918.951599,767.433350 
	C918.637878,763.800720 920.238281,762.885620 923.618652,762.939819 
	C933.942627,763.105530 944.273560,763.132446 954.596191,762.928772 
	C958.251709,762.856628 959.076660,764.300842 959.057129,767.644775 
	C958.941284,787.464600 958.999878,807.285461 959.000122,827.105957 
	C959.000183,834.105469 960.898010,835.572998 967.598999,833.756653 
	C975.476379,831.621399 975.475159,831.621826 978.108215,839.397766 
	C978.468079,840.460632 978.811951,841.530762 979.221802,842.574585 
	C981.985718,849.613525 982.016052,849.659363 975.373657,853.146545 
	C972.686340,854.557251 969.862549,855.707764 966.670654,856.987793 
z"/>
<path fill="#FFFFFF" opacity="1.000000" stroke="none" 
	d="
M784.000000,779.002563 
	C784.000000,795.315430 783.999878,811.129089 784.000061,826.942688 
	C784.000122,834.158813 787.185364,836.092468 794.262756,833.307983 
	C796.169678,832.557678 798.222229,832.177612 800.319641,831.596680 
	C802.261414,835.807922 803.968872,839.577759 805.733704,843.320557 
	C807.664673,847.415649 806.933228,850.423645 802.442566,852.161011 
	C797.868774,853.930603 793.443787,857.006958 788.776428,857.398560 
	C781.556458,858.004333 774.060608,857.500061 766.913940,856.195068 
	C759.641663,854.867249 755.104004,845.133667 755.039978,836.868774 
	C754.907410,819.752869 755.000000,802.635193 755.000000,785.131958 
	C751.672119,785.131958 748.588623,785.131958 745.260132,785.131958 
	C745.260132,777.679382 745.260132,770.609497 745.260132,763.268433 
	C757.980286,763.268433 770.708252,763.268433 784.000000,763.268433 
	C784.000000,768.311768 784.000000,773.407532 784.000000,779.002563 
z"/>
<path fill="#FFFFFF" opacity="1.000000" stroke="none" 
	d="
M949.961304,721.000000 
	C953.102417,721.000000 955.748840,721.000000 958.696899,721.000000 
	C958.696899,730.245667 958.696899,739.313049 958.696899,748.989014 
	C949.085999,748.989014 939.333557,749.078369 929.589172,748.838928 
	C928.699951,748.817078 927.156494,746.712402 927.116821,745.534607 
	C926.881653,738.549683 927.081421,731.551453 926.962646,724.560608 
	C926.911865,721.572449 928.374573,720.922180 930.985962,720.966614 
	C937.144592,721.071411 943.306152,721.000061 949.961304,721.000000 
z"/>
<path fill="#FFFFFF" opacity="1.000000" stroke="none" 
	d="
M753.394043,748.597046 
	C753.056213,739.298523 753.056213,730.345215 753.056213,721.201294 
	C763.467407,721.201294 773.538208,721.201294 783.795532,721.201294 
	C783.795532,730.473755 783.795532,739.544678 783.795532,748.942261 
	C773.640869,748.942261 763.686401,748.942261 753.394043,748.597046 
z"/>
<path fill="#000000" opacity="1.000000" stroke="none" 
	d="
M547.000000,554.000000 
	C547.000000,581.251892 547.000000,608.003784 547.000000,635.962646 
	C541.099854,630.802429 536.120972,626.296753 530.982971,621.980408 
	C508.075317,602.736145 485.120392,583.325684 457.351105,571.443176 
	C446.734283,566.900208 434.797424,564.918945 423.248749,563.224304 
	C411.733856,561.534546 399.954163,561.209045 388.285828,561.144775 
	C378.955933,561.093384 369.621521,562.371948 360.283417,562.971069 
	C357.640686,563.140625 354.977844,562.997070 351.537659,562.997070 
	C355.426361,553.198364 359.166534,543.900757 362.810883,534.565796 
	C371.893677,511.300201 380.964081,488.029663 389.977844,464.737274 
	C395.408264,450.704468 400.710114,436.621857 406.102539,422.574219 
	C407.097168,419.983154 408.519562,419.466492 411.389648,420.658112 
	C421.587555,424.892029 431.959961,428.705231 442.261230,432.690796 
	C464.060760,441.125122 485.855865,449.570892 507.655243,458.005524 
	C519.750061,462.685211 531.913757,467.199402 543.870483,472.208282 
	C545.448914,472.869476 546.851990,476.017792 546.867981,478.026031 
	C547.069397,503.182770 547.000000,528.341675 547.000000,554.000000 
z"/>
<path fill="#000000" opacity="1.000000" stroke="none" 
	d="
M551.000000,521.000000 
	C551.000000,506.175201 551.033691,491.850281 550.972534,477.525757 
	C550.959778,474.543701 551.856262,473.050903 555.001892,471.856476 
	C583.584717,461.003510 612.059753,449.866425 640.556824,438.788116 
	C655.771118,432.873566 671.023560,427.049866 686.128296,420.866302 
	C689.632385,419.431824 690.897278,420.592957 692.002625,423.467560 
	C704.065552,454.838959 716.088196,486.226013 728.238770,517.563477 
	C734.021301,532.477295 740.054504,547.294006 746.207764,562.741028 
	C742.751709,562.741028 739.582764,562.796570 736.417908,562.707031 
	C735.473877,562.680420 734.546936,562.057495 733.602661,562.029663 
	C720.859070,561.653198 708.080261,560.593323 695.376404,561.167847 
	C674.661499,562.104736 653.783447,563.815857 635.026794,573.702087 
	C622.994690,580.044006 611.306274,587.318481 600.382141,595.414062 
	C585.219727,606.650574 570.918335,619.048950 556.249939,630.951904 
	C554.816650,632.114929 553.394836,633.292053 551.000000,635.256409 
	C551.000000,596.369446 551.000000,558.934692 551.000000,521.000000 
z"/>
<path fill="#000000" opacity="1.000000" stroke="none" 
	d="
M574.223389,352.050323 
	C581.232361,353.412750 587.863159,354.621124 594.450378,356.032318 
	C600.556335,357.340393 602.976868,360.630829 603.042480,366.587402 
	C603.097229,371.551758 599.498474,373.359283 595.967529,374.905579 
	C590.708862,377.208496 585.179443,378.884827 579.854736,381.048065 
	C574.899902,383.061005 572.812683,387.086914 573.023010,392.285370 
	C573.255737,398.037903 573.823486,403.780426 573.924500,409.532928 
	C573.966248,411.908508 573.822205,414.727295 572.600952,416.577942 
	C570.935242,419.102173 568.488831,421.789429 565.780701,422.786163 
	C561.865723,424.226990 558.438965,421.813568 556.162048,418.468323 
	C553.634399,414.754883 551.445312,410.812927 548.988770,407.048798 
	C544.116882,399.583801 539.250549,398.264130 531.157837,401.963165 
	C524.746033,404.893890 518.459229,408.290466 511.763580,410.306732 
	C509.310028,411.045593 505.404297,408.992188 502.952148,407.155975 
	C500.295380,405.166565 500.111237,401.643494 502.092163,398.774750 
	C505.857819,393.321320 509.855652,388.026855 513.804199,382.701294 
	C518.322693,376.606934 517.523438,371.127441 512.430908,365.880524 
	C508.388916,361.715973 504.437012,357.454651 500.622314,353.081726 
	C497.474915,349.473694 496.920410,343.534821 499.574127,340.027466 
	C502.239502,336.504730 505.529449,335.100037 510.297699,336.837006 
	C514.937744,338.527313 520.015320,339.021545 524.905090,340.019928 
	C531.897705,341.447723 537.281982,338.756348 541.093567,332.718384 
	C544.366028,327.534515 547.748474,322.267456 551.978821,317.906952 
	C554.015503,315.807556 558.164856,314.758087 561.275146,314.910950 
	C567.479065,315.215881 568.376953,322.654266 567.878784,327.519592 
	C567.326111,332.916748 566.915100,338.380524 567.133789,343.787292 
	C567.295532,347.786652 570.121094,350.446533 574.223389,352.050323 
M545.999756,330.499481 
	C545.002747,331.967834 544.079895,333.493591 542.995728,334.894440 
	C538.794312,340.322784 532.935974,345.371460 523.828247,343.065735 
	C518.843872,341.803864 513.758850,340.908081 508.686188,340.039948 
	C505.986237,339.577850 502.870758,339.750946 502.180267,342.907074 
	C501.669647,345.241119 501.814758,348.494598 503.113953,350.294617 
	C506.270782,354.668335 510.382233,358.338257 513.905273,362.465759 
	C519.757202,369.321686 521.910339,374.472046 518.221619,381.185333 
	C516.292908,384.695465 513.649658,387.809296 511.379700,391.136597 
	C509.215851,394.308350 506.713806,397.335541 505.101654,400.773804 
	C503.413330,404.374481 505.797638,406.663696 509.209869,406.859711 
	C511.830017,407.010193 514.677734,406.274933 517.148499,405.261322 
	C521.298462,403.558868 525.117249,401.044159 529.275879,399.369019 
	C537.349792,396.116699 543.802063,394.413879 550.785583,404.293030 
	C553.857117,408.638184 556.627075,413.225098 560.013062,417.304474 
	C561.247009,418.791046 564.136353,420.134277 565.788635,419.701904 
	C567.492615,419.255951 569.674561,416.637390 569.789246,414.850098 
	C570.168396,408.942810 570.266907,402.900360 569.416626,397.063690 
	C568.532043,390.992462 570.678833,382.962830 576.080017,380.114105 
	C581.834106,377.079285 588.113098,375.054688 594.075012,372.392090 
	C596.926514,371.118530 600.343323,370.297943 600.066772,365.800842 
	C599.797302,361.419830 596.772278,359.873016 593.439392,359.089935 
	C587.802124,357.765472 581.981079,357.229706 576.333435,355.941040 
	C569.409973,354.361237 563.285828,350.205688 563.919067,341.822906 
	C564.344360,336.193298 564.212158,330.493683 563.894287,324.849854 
	C563.769226,322.628326 562.610596,318.702423 561.662170,318.622009 
	C558.871704,318.385254 555.254272,318.869537 553.247803,320.580811 
	C550.405701,323.004791 548.713867,326.777527 545.999756,330.499481 
z"/>
<path fill="#000000" opacity="1.000000" stroke="none" 
	d="
M465.191803,389.324036 
	C464.279144,393.904205 463.749786,398.206604 462.942566,402.456207 
	C462.644958,404.023010 461.692291,405.465393 461.038452,406.964508 
	C459.575592,406.026276 457.659637,405.410248 456.725342,404.096191 
	C451.652771,396.961731 449.369812,395.690308 444.383423,397.946686 
	C442.475800,398.809875 440.521820,399.627472 438.754578,400.731049 
	C435.834534,402.554474 433.563782,402.493042 431.903687,398.746918 
	C433.685822,396.284698 435.537292,393.665009 437.453796,391.093750 
	C440.126984,387.507263 439.747314,384.262421 436.669525,381.082764 
	C434.977936,379.335205 433.354279,377.458313 432.066040,375.409576 
	C431.381500,374.320923 430.857880,372.364288 431.391632,371.486755 
	C431.952972,370.563812 433.836914,370.227936 435.192444,370.075409 
	C436.243286,369.957184 437.372406,370.507629 438.463135,370.775543 
	C444.666473,372.299255 448.343445,370.880646 451.788544,365.589752 
	C452.576752,364.379303 453.002319,362.646210 454.096497,361.989105 
	C455.708282,361.021149 457.770447,360.803040 459.640778,360.265533 
	C459.903839,361.855652 460.582977,363.506317 460.361877,365.025970 
	C459.015961,374.276306 460.679565,376.327728 469.508911,377.980743 
	C470.314850,378.131622 471.363617,377.705902 471.967163,378.081757 
	C473.733917,379.181976 475.332520,380.552216 476.997009,381.816620 
	C475.493225,383.210938 474.160950,384.888977 472.442322,385.927887 
	C470.281830,387.233887 467.805115,388.016724 465.191803,389.324036 
z"/>
<path fill="#000000" opacity="1.000000" stroke="none" 
	d="
M652.728394,394.766632 
	C650.862061,398.004456 650.730957,402.190491 645.453552,402.654816 
	C645.302185,400.612885 645.044617,398.577026 645.019958,396.538361 
	C644.945862,390.429077 642.833679,388.249969 636.586304,387.999207 
	C635.595154,387.959442 634.334290,388.272156 633.674377,387.781494 
	C632.581299,386.968781 631.668457,385.722565 631.139648,384.465515 
	C630.991882,384.114471 632.363281,382.608185 633.200562,382.439514 
	C640.851440,380.898254 641.550049,375.518097 641.114624,369.126587 
	C641.002380,367.479523 642.301453,365.736359 642.952148,364.037323 
	C644.195374,365.100616 645.726196,365.962891 646.633240,367.261078 
	C651.140320,373.712372 652.730835,373.984375 659.519653,370.170227 
	C661.244263,369.201294 663.707886,369.547668 666.744690,369.178833 
	C665.655396,371.619049 665.311829,372.697449 664.735168,373.632172 
	C659.778870,381.665924 659.812134,381.617340 666.280579,388.872559 
	C667.335205,390.055511 667.781921,391.780426 668.506836,393.249298 
	C663.002563,396.031128 657.574097,388.100616 652.728394,394.766632 
z"/>
<path fill="#000000" opacity="1.000000" stroke="none" 
	d="
M605.250732,323.985199 
	C605.088867,322.622009 604.860291,320.818054 605.651367,319.999237 
	C609.130554,316.397949 608.120789,313.438660 604.974426,310.395599 
	C604.007324,309.460266 603.361755,308.192596 602.284729,306.677124 
	C606.333984,306.677124 610.028198,307.635956 612.706848,306.397766 
	C615.205261,305.242889 616.624023,301.752655 619.076843,298.564026 
	C619.976929,303.331451 619.620911,307.287598 621.427795,309.334473 
	C623.153809,311.289734 627.131348,311.257507 631.199768,312.403229 
	C627.526306,314.855713 623.902893,316.091370 622.426331,318.593719 
	C620.952881,321.090881 621.630310,324.857117 621.278992,329.103973 
	C619.497192,327.731079 618.861877,327.447174 618.533630,326.957458 
	C614.549316,321.012299 614.242554,320.922150 607.581055,323.750244 
	C607.006897,323.993988 606.299072,323.922760 605.250732,323.985199 
z"/>
<path fill="#000000" opacity="1.000000" stroke="none" 
	d="
M523.675781,815.281128 
	C522.043701,807.004761 523.383545,799.281555 526.151611,791.985474 
	C528.470703,785.872681 533.873108,782.953674 540.327942,783.099060 
	C545.468079,783.214783 550.588196,784.213196 555.999695,784.853210 
	C555.999695,798.079163 556.078552,810.860718 555.954285,823.640198 
	C555.914062,827.772949 548.178833,833.577393 542.635986,833.999390 
	C531.211121,834.869202 524.163147,827.944946 523.675781,815.281128 
z"/>
<path fill="#000000" opacity="1.000000" stroke="none" 
	d="
M325.751282,784.011536 
	C329.753906,786.826477 333.408325,789.552063 336.882324,792.490784 
	C337.599426,793.097412 337.947540,794.496460 337.953583,795.533203 
	C338.025238,807.844727 337.999725,820.156799 337.999725,833.115479 
	C332.774597,833.418579 327.764832,833.895447 322.749695,833.960815 
	C312.650024,834.092468 309.692627,831.536804 306.785950,821.407959 
	C304.287323,812.700989 304.371063,804.049011 307.066956,795.500305 
	C308.679626,790.386353 311.429657,785.697266 316.992035,784.122925 
	C319.578949,783.390808 322.544952,783.997742 325.751282,784.011536 
z"/>
<path fill="#000000" opacity="1.000000" stroke="none" 
	d="
M158.744537,784.940002 
	C166.431961,788.753662 168.661530,794.698486 168.149948,802.760132 
	C167.521484,812.663940 168.000000,822.638000 168.000000,833.077515 
	C162.857407,833.397156 158.010574,833.898010 153.158234,833.959045 
	C142.610199,834.091797 139.715714,831.659973 136.774109,821.389038 
	C134.288208,812.709290 134.467026,804.110596 137.027435,795.540039 
	C138.421753,790.872803 141.362930,787.513245 145.540726,784.781799 
	C150.096970,781.803040 154.105148,783.361145 158.744537,784.940002 
z"/>
<path fill="#FFFFFF" opacity="1.000000" stroke="none" 
	d="
M546.265015,330.236633 
	C548.713867,326.777527 550.405701,323.004791 553.247803,320.580811 
	C555.254272,318.869537 558.871704,318.385254 561.662170,318.622009 
	C562.610596,318.702423 563.769226,322.628326 563.894287,324.849854 
	C564.212158,330.493683 564.344360,336.193298 563.919067,341.822906 
	C563.285828,350.205688 569.409973,354.361237 576.333435,355.941040 
	C581.981079,357.229706 587.802124,357.765472 593.439392,359.089935 
	C596.772278,359.873016 599.797302,361.419830 600.066772,365.800842 
	C600.343323,370.297943 596.926514,371.118530 594.075012,372.392090 
	C588.113098,375.054688 581.834106,377.079285 576.080017,380.114105 
	C570.678833,382.962830 568.532043,390.992462 569.416626,397.063690 
	C570.266907,402.900360 570.168396,408.942810 569.789246,414.850098 
	C569.674561,416.637390 567.492615,419.255951 565.788635,419.701904 
	C564.136353,420.134277 561.247009,418.791046 560.013062,417.304474 
	C556.627075,413.225098 553.857117,408.638184 550.785583,404.293030 
	C543.802063,394.413879 537.349792,396.116699 529.275879,399.369019 
	C525.117249,401.044159 521.298462,403.558868 517.148499,405.261322 
	C514.677734,406.274933 511.830017,407.010193 509.209869,406.859711 
	C505.797638,406.663696 503.413330,404.374481 505.101654,400.773804 
	C506.713806,397.335541 509.215851,394.308350 511.379700,391.136597 
	C513.649658,387.809296 516.292908,384.695465 518.221619,381.185333 
	C521.910339,374.472046 519.757202,369.321686 513.905273,362.465759 
	C510.382233,358.338257 506.270782,354.668335 503.113953,350.294617 
	C501.814758,348.494598 501.669647,345.241119 502.180267,342.907074 
	C502.870758,339.750946 505.986237,339.577850 508.686188,340.039948 
	C513.758850,340.908081 518.843872,341.803864 523.828247,343.065735 
	C532.935974,345.371460 538.794312,340.322784 542.995728,334.894440 
	C544.079895,333.493591 545.002747,331.967834 546.265015,330.236633 
z"/>
</svg>